<?xml version="1.0" encoding="UTF-8" standalone="no"?> <svg width="64" height="64" viewBox="0 0 64 64" fill="none" xmlns="http://www.w3.org/2000/svg">
<path d="M32 11.26C32.3978 11.26 32.7794 11.102 33.0607 10.8207C33.342 10.5394 33.5 10.1578 33.5 9.76V5C33.5 4.60218 33.342 4.22064 33.0607 3.93934C32.7794 3.65804 32.3978 3.5 32 3.5C31.6022 3.5 31.2206 3.65804 30.9393 3.93934C30.658 4.22064 30.5 4.60218 30.5 5V9.76C30.5 10.1578 30.658 10.5394 30.9393 10.8207C31.2206 11.102 31.6022 11.26 32 11.26V11.26Z" fill="rgba(255,0,0,0.75)"/>
<path d="M46.58 17.2999C46.9775 17.2985 47.3584 17.1404 47.64 16.8599L51 13.4899C51.1403 13.3513 51.2517 13.1863 51.3277 13.0043C51.4037 12.8223 51.4429 12.6271 51.4429 12.4299C51.4429 12.2327 51.4037 12.0375 51.3277 11.8555C51.2517 11.6735 51.1403 11.5085 51 11.3699C50.7175 11.0914 50.3367 10.9353 49.94 10.9353C49.5433 10.9353 49.1625 11.0914 48.88 11.3699L45.52 14.7399C45.3797 14.8785 45.2683 15.0435 45.1923 15.2255C45.1163 15.4075 45.0771 15.6027 45.0771 15.7999C45.0771 15.9971 45.1163 16.1923 45.1923 16.3743C45.2683 16.5563 45.3797 16.7213 45.52 16.8599C45.8017 17.1404 46.1825 17.2985 46.58 17.2999V17.2999Z" fill="rgba(255,0,0,0.75)"/>
<path d="M57.38 28.8799H52.62C52.2222 28.8799 51.8406 29.0379 51.5593 29.3192C51.278 29.6005 51.12 29.9821 51.12 30.3799C51.12 30.7777 51.278 31.1592 51.5593 31.4405C51.8406 31.7218 52.2222 31.8799 52.62 31.8799H57.38C57.7778 31.8799 58.1594 31.7218 58.4407 31.4405C58.722 31.1592 58.88 30.7777 58.88 30.3799C58.88 29.9821 58.722 29.6005 58.4407 29.3192C58.1594 29.0379 57.7778 28.8799 57.38 28.8799V28.8799Z" fill="rgba(255,0,0,0.75)"/>
<path d="M47.64 43.8999C47.5084 43.7363 47.3438 43.6021 47.157 43.5061C46.9702 43.41 46.7654 43.3543 46.5557 43.3425C46.346 43.3306 46.1362 43.363 45.9398 43.4374C45.7434 43.5118 45.5648 43.6266 45.4156 43.7744C45.2664 43.9222 45.1499 44.0997 45.0736 44.2954C44.9973 44.4911 44.963 44.7006 44.9728 44.9104C44.9827 45.1202 45.0365 45.3256 45.1307 45.5133C45.225 45.7009 45.3576 45.8667 45.52 45.9999L48.88 49.3599C49.1628 49.6386 49.5429 49.7964 49.94 49.7999C50.2324 49.7959 50.5173 49.7064 50.7595 49.5426C51.0018 49.3787 51.1909 49.1477 51.3035 48.8778C51.4161 48.6079 51.4474 48.3109 51.3935 48.0235C51.3396 47.7361 51.2028 47.4706 51 47.2599L47.64 43.8999Z" fill="rgba(255,0,0,0.75)"/>
<path d="M16.36 43.9L13 47.26C12.7904 47.4698 12.6478 47.7369 12.59 48.0277C12.5323 48.3185 12.562 48.6199 12.6754 48.8939C12.7888 49.1678 12.9809 49.4019 13.2273 49.5668C13.4737 49.7316 13.7635 49.8197 14.06 49.82C14.457 49.8164 14.8371 49.6587 15.12 49.38L18.48 46C18.6273 45.8627 18.7455 45.6971 18.8275 45.5131C18.9095 45.3291 18.9536 45.1305 18.9571 44.9291C18.9607 44.7276 18.9236 44.5276 18.8482 44.3408C18.7728 44.154 18.6605 43.9844 18.518 43.8419C18.3756 43.6995 18.2059 43.5872 18.0192 43.5118C17.8324 43.4363 17.6323 43.3993 17.4309 43.4028C17.2295 43.4064 17.0309 43.4505 16.8469 43.5324C16.6629 43.6144 16.4973 43.7326 16.36 43.88V43.9Z" fill="rgba(255,0,0,0.75)"/>
<path d="M11.38 28.8799H6.62C6.22217 28.8799 5.84064 29.0379 5.55934 29.3192C5.27803 29.6005 5.12 29.9821 5.12 30.3799C5.12 30.7777 5.27803 31.1592 5.55934 31.4405C5.84064 31.7218 6.22217 31.8799 6.62 31.8799H11.38C11.7778 31.8799 12.1594 31.7218 12.4407 31.4405C12.722 31.1592 12.88 30.7777 12.88 30.3799C12.88 29.9821 12.722 29.6005 12.4407 29.3192C12.1594 29.0379 11.7778 28.8799 11.38 28.8799V28.8799Z" fill="rgba(255,0,0,0.75)"/>
<path d="M16.36 16.8599C16.6412 17.1408 17.0225 17.2986 17.42 17.2986C17.8175 17.2986 18.1987 17.1408 18.48 16.8599C18.6203 16.7213 18.7317 16.5563 18.8077 16.3743C18.8837 16.1923 18.9229 15.9971 18.9229 15.7999C18.9229 15.6027 18.8837 15.4075 18.8077 15.2255C18.7317 15.0435 18.6203 14.8785 18.48 14.7399L15.12 11.3699C14.8375 11.0914 14.4567 10.9353 14.06 10.9353C13.6633 10.9353 13.2825 11.0914 13 11.3699C12.8597 11.5085 12.7483 11.6735 12.6723 11.8555C12.5963 12.0375 12.5571 12.2327 12.5571 12.4299C12.5571 12.6271 12.5963 12.8223 12.6723 13.0043C12.7483 13.1863 12.8597 13.3513 13 13.4899L16.36 16.8599Z" fill="rgba(255,0,0,0.75)"/>
<path d="M48.46 28.9999C48.2356 26.2988 47.35 23.6943 45.8813 21.4162C44.4126 19.1382 42.406 17.2565 40.0383 15.937C37.6707 14.6176 35.0147 13.9011 32.3047 13.8505C29.5947 13.8 26.9139 14.417 24.4987 15.6472C22.0835 16.8774 20.0081 18.683 18.4555 20.9047C16.9029 23.1265 15.9208 25.6961 15.5959 28.387C15.2709 31.0779 15.613 33.8075 16.5921 36.3349C17.5711 38.8624 19.1571 41.1101 21.21 42.8799C22.3881 43.8816 23.3364 45.1254 23.9905 46.5266C24.6445 47.9279 24.9888 49.4536 25 50.9999V51.6999C25 52.0978 25.158 52.4793 25.4393 52.7606C25.7206 53.0419 26.1021 53.1999 26.5 53.1999H27.26V55.7499C27.26 57.0071 27.7594 58.2127 28.6483 59.1016C29.5372 59.9905 30.7428 60.4899 32 60.4899C33.2571 60.4899 34.4627 59.9905 35.3517 59.1016C36.2406 58.2127 36.74 57.0071 36.74 55.7499V53.2099H37.5C37.8978 53.2099 38.2793 53.0519 38.5606 52.7706C38.8419 52.4893 39 52.1078 39 51.7099V50.9999C39.025 49.4341 39.3841 47.8917 40.0533 46.4759C40.7224 45.06 41.6861 43.8034 42.88 42.7899C44.8305 41.0934 46.3527 38.96 47.3223 36.5636C48.292 34.1672 48.6818 31.5756 48.46 28.9999V28.9999ZM33.74 55.7599C33.74 56.2214 33.5567 56.664 33.2303 56.9903C32.904 57.3166 32.4614 57.4999 32 57.4999C31.5385 57.4999 31.0959 57.3166 30.7696 56.9903C30.4433 56.664 30.26 56.2214 30.26 55.7599V53.2099H33.74V55.7599ZM40.91 40.5399C39.4921 41.7464 38.328 43.2225 37.4851 44.8825C36.6422 46.5425 36.1374 48.3533 36 50.2099H28C27.8804 48.3696 27.3931 46.5718 26.567 44.9229C25.7408 43.2741 24.5925 41.8075 23.19 40.6099C21.1041 38.8111 19.6174 36.418 18.9289 33.751C18.2404 31.084 18.3829 28.2704 19.3374 25.6866C20.2918 23.1028 22.0127 20.8722 24.2696 19.2933C26.5266 17.7144 29.212 16.8624 31.9664 16.8516C34.7208 16.8407 37.4128 17.6714 39.6821 19.2325C41.9515 20.7935 43.6899 23.0105 44.6647 25.5866C45.6395 28.1628 45.8042 30.9753 45.1368 33.6476C44.4693 36.3199 43.0016 38.7247 40.93 40.5399H40.91Z" fill="rgba(255,0,0,0.75)"/>
</svg>
